<svg xmlns="http://www.w3.org/2000/svg" width="121.404" height="82.622" viewBox="0 0 121.404 82.622">
    <g transform="translate(-144.314 -921.478)">
    <g transform="translate(10 707.132)">
        <path d="M33.181,280.6h9.432l3.3-.36v-.961l-.541-.481-7.63-.24-.541-.541V258.367l.36-1.2H48.2l.721-.36v-.9l-.421-.541-10.994-.3-.3-3,.3-4.566.781-2.884.961-2.223,1.8-1.8,1.562-.781h2.043l2.163,1.021,2.1,3.364,1.442,4.085,1.081.541.541-.6v-1.021l-1.262-3.3L49.1,241l-2.283-2.283L44.9,238H42.073l-2.884,1.442-2.523,3.485-.961,4.025-.481,8.111-2.463.3-.36.9.421.9h2.4v21.388l-2.043.24-.781.36v.661Z" transform="translate(107.03 -19.628)" fill="#FFDFDC"/>
        <path d="M16.853-1079.4h0c-.008-.012-.775-1.222-2.088-2.945-.772-1.013-1.579-2-2.4-2.943-1.025-1.175-2.074-2.275-3.117-3.268-1.183-1.127-1.874-1.8-2.378-2.287-1.311-1.273-1.311-1.273-5.27-4.739l-.1-.086-1.181-1.035a31.148,31.148,0,0,1-2.429-2.368,27.231,27.231,0,0,1-1.986-2.429,22.3,22.3,0,0,1-2.711-4.9,17.04,17.04,0,0,1-1.141-4.709,12.846,12.846,0,0,1,.3-4.235,17.481,17.481,0,0,1,.589-1.91,14.862,14.862,0,0,1,.814-1.805,13.075,13.075,0,0,1,1.062-1.669,12.138,12.138,0,0,1,1.334-1.5,12.143,12.143,0,0,1,1.629-1.3A13.211,13.211,0,0,1-.275-1124.6a15.563,15.563,0,0,1,2.291-.805,19.529,19.529,0,0,1,2.657-.51A11.293,11.293,0,0,1,6.052-1126a10.853,10.853,0,0,1,2.394.267,11.415,11.415,0,0,1,2.112.705,13.653,13.653,0,0,1,3.333,2.14,16.164,16.164,0,0,1,1.2,1.143c.305.323.6.658.87,1a11.3,11.3,0,0,1,.71.973h0a9.872,9.872,0,0,1,.7-.946c.272-.33.569-.656.88-.971a14.973,14.973,0,0,1,1.234-1.113,13.9,13.9,0,0,1,3.53-2.083,13.084,13.084,0,0,1,2.3-.687,13.508,13.508,0,0,1,2.654-.26,14.884,14.884,0,0,1,1.868.12,15.486,15.486,0,0,1,1.576.283,13.9,13.9,0,0,1,1.431.417,12.5,12.5,0,0,1,2.452,1.172,12.205,12.205,0,0,1,3.446,3.233,13.661,13.661,0,0,1,1.1,1.8,14.418,14.418,0,0,1,.747,1.74,13.66,13.66,0,0,1,.449,1.551,10.069,10.069,0,0,1,.2,1.23c.01.106.022.218.034.337h0a17.76,17.76,0,0,1,.107,2.977,14.579,14.579,0,0,1-.262,2.028,16.109,16.109,0,0,1-.672,2.364,19.581,19.581,0,0,1-1.232,2.683,25.585,25.585,0,0,1-1.942,2.986,35.14,35.14,0,0,1-2.8,3.271,49.551,49.551,0,0,1-3.812,3.538c-2.918,2.425-5.232,4.732-7.091,6.586-.26.26-.529.528-.784.78-1.155,1.191-2.186,2.317-3.063,3.349-.7.825-1.307,1.592-1.8,2.278a15.215,15.215,0,0,0-.85,1.3,4.031,4.031,0,0,0-.214.413ZM5.981-1124.2c-.081,0-.164,0-.246,0a12.24,12.24,0,0,0-8.407,3.37,11.677,11.677,0,0,0-1.272,1.452,11.289,11.289,0,0,0-.95,1.525,8.989,8.989,0,0,0-.958,2.929,15.587,15.587,0,0,0,.392,6.978,15.413,15.413,0,0,0,.9,2.239,19.208,19.208,0,0,0,1.438,2.431,25.837,25.837,0,0,0,2.091,2.619,36.325,36.325,0,0,0,2.855,2.805c2.008,1.777,3.29,2.908,4.139,3.656h0c1.6,1.408,1.6,1.408,1.881,1.7.21.216.6.619,2,1.947.953.908,1.913,1.885,2.853,2.9.752.814,1.493,1.656,2.2,2.5,1.205,1.439,1.914,2.41,1.921,2.42a7.943,7.943,0,0,1,.819-1.088c.406-.489.924-1.079,1.539-1.755.77-.844,1.7-1.824,2.752-2.912l.562-.559c.872-.868,1.861-1.851,2.979-2.907,1.294-1.222,2.517-2.31,3.739-3.325,5.2-4.284,11.214-10.92,10.31-18.205-.009-.069-.016-.129-.022-.181a13.544,13.544,0,0,0-.392-2.09,12.294,12.294,0,0,0-1.425-3.32,9.959,9.959,0,0,0-3.164-3.195,12.107,12.107,0,0,0-5.611-1.714c-.353-.026-.7-.039-1.047-.039a11.321,11.321,0,0,0-5.351,1.269,11.36,11.36,0,0,0-3.4,2.792,13.4,13.4,0,0,0-1.078,1.491,13.849,13.849,0,0,0-.718,1.3,10.08,10.08,0,0,0-.524,1.269,14.183,14.183,0,0,0-.666-1.3c-.259-.453-.54-.9-.836-1.332a17.693,17.693,0,0,0-1.174-1.526,13.218,13.218,0,0,0-3.371-2.858A9.409,9.409,0,0,0,5.981-1124.2Z" transform="translate(142.316 1340.346)" fill="#FFDFDC"/>
    </g>
    <g transform="translate(82 743.132)">
        <path d="M33.181,280.6h9.432l3.3-.36v-.961l-.541-.481-7.63-.24-.541-.541V258.367l.36-1.2H48.2l.721-.36v-.9l-.421-.541-10.994-.3-.3-3,.3-4.566.781-2.884.961-2.223,1.8-1.8,1.562-.781h2.043l2.163,1.021,2.1,3.364,1.442,4.085,1.081.541.541-.6v-1.021l-1.262-3.3L49.1,241l-2.283-2.283L44.9,238H42.073l-2.884,1.442-2.523,3.485-.961,4.025-.481,8.111-2.463.3-.36.9.421.9h2.4v21.388l-2.043.24-.781.36v.661Z" transform="translate(107.03 -19.628)" fill="#FFDFDC"/>
        <path d="M16.853-1079.4h0c-.008-.012-.775-1.222-2.088-2.945-.772-1.013-1.579-2-2.4-2.943-1.025-1.175-2.074-2.275-3.117-3.268-1.183-1.127-1.874-1.8-2.378-2.287-1.311-1.273-1.311-1.273-5.27-4.739l-.1-.086-1.181-1.035a31.148,31.148,0,0,1-2.429-2.368,27.231,27.231,0,0,1-1.986-2.429,22.3,22.3,0,0,1-2.711-4.9,17.04,17.04,0,0,1-1.141-4.709,12.846,12.846,0,0,1,.3-4.235,17.481,17.481,0,0,1,.589-1.91,14.862,14.862,0,0,1,.814-1.805,13.075,13.075,0,0,1,1.062-1.669,12.138,12.138,0,0,1,1.334-1.5,12.143,12.143,0,0,1,1.629-1.3A13.211,13.211,0,0,1-.275-1124.6a15.563,15.563,0,0,1,2.291-.805,19.529,19.529,0,0,1,2.657-.51A11.293,11.293,0,0,1,6.052-1126a10.853,10.853,0,0,1,2.394.267,11.415,11.415,0,0,1,2.112.705,13.653,13.653,0,0,1,3.333,2.14,16.164,16.164,0,0,1,1.2,1.143c.305.323.6.658.87,1a11.3,11.3,0,0,1,.71.973h0a9.872,9.872,0,0,1,.7-.946c.272-.33.569-.656.88-.971a14.973,14.973,0,0,1,1.234-1.113,13.9,13.9,0,0,1,3.53-2.083,13.084,13.084,0,0,1,2.3-.687,13.508,13.508,0,0,1,2.654-.26,14.884,14.884,0,0,1,1.868.12,15.486,15.486,0,0,1,1.576.283,13.9,13.9,0,0,1,1.431.417,12.5,12.5,0,0,1,2.452,1.172,12.205,12.205,0,0,1,3.446,3.233,13.661,13.661,0,0,1,1.1,1.8,14.418,14.418,0,0,1,.747,1.74,13.66,13.66,0,0,1,.449,1.551,10.069,10.069,0,0,1,.2,1.23c.01.106.022.218.034.337h0a17.76,17.76,0,0,1,.107,2.977,14.579,14.579,0,0,1-.262,2.028,16.109,16.109,0,0,1-.672,2.364,19.581,19.581,0,0,1-1.232,2.683,25.585,25.585,0,0,1-1.942,2.986,35.14,35.14,0,0,1-2.8,3.271,49.551,49.551,0,0,1-3.812,3.538c-2.918,2.425-5.232,4.732-7.091,6.586-.26.26-.529.528-.784.78-1.155,1.191-2.186,2.317-3.063,3.349-.7.825-1.307,1.592-1.8,2.278a15.215,15.215,0,0,0-.85,1.3,4.031,4.031,0,0,0-.214.413ZM5.981-1124.2c-.081,0-.164,0-.246,0a12.24,12.24,0,0,0-8.407,3.37,11.677,11.677,0,0,0-1.272,1.452,11.289,11.289,0,0,0-.95,1.525,8.989,8.989,0,0,0-.958,2.929,15.587,15.587,0,0,0,.392,6.978,15.413,15.413,0,0,0,.9,2.239,19.208,19.208,0,0,0,1.438,2.431,25.837,25.837,0,0,0,2.091,2.619,36.325,36.325,0,0,0,2.855,2.805c2.008,1.777,3.29,2.908,4.139,3.656h0c1.6,1.408,1.6,1.408,1.881,1.7.21.216.6.619,2,1.947.953.908,1.913,1.885,2.853,2.9.752.814,1.493,1.656,2.2,2.5,1.205,1.439,1.914,2.41,1.921,2.42a7.943,7.943,0,0,1,.819-1.088c.406-.489.924-1.079,1.539-1.755.77-.844,1.7-1.824,2.752-2.912l.562-.559c.872-.868,1.861-1.851,2.979-2.907,1.294-1.222,2.517-2.31,3.739-3.325,5.2-4.284,11.214-10.92,10.31-18.205-.009-.069-.016-.129-.022-.181a13.544,13.544,0,0,0-.392-2.09,12.294,12.294,0,0,0-1.425-3.32,9.959,9.959,0,0,0-3.164-3.195,12.107,12.107,0,0,0-5.611-1.714c-.353-.026-.7-.039-1.047-.039a11.321,11.321,0,0,0-5.351,1.269,11.36,11.36,0,0,0-3.4,2.792,13.4,13.4,0,0,0-1.078,1.491,13.849,13.849,0,0,0-.718,1.3,10.08,10.08,0,0,0-.524,1.269,14.183,14.183,0,0,0-.666-1.3c-.259-.453-.54-.9-.836-1.332a17.693,17.693,0,0,0-1.174-1.526,13.218,13.218,0,0,0-3.371-2.858A9.409,9.409,0,0,0,5.981-1124.2Z" transform="translate(142.316 1340.346)" fill="#FFDFDC"/>
    </g>
    </g>
</svg>