<svg height="512" viewBox="0 0 512 512" width="512" xmlns="http://www.w3.org/2000/svg"><g id="Flat"><path d="m256 456-188.00009-188.00009a130.10752 130.10752 0 0 1 0-183.99982l.00018-.00018a130.10752 130.10752 0 0 1 183.99982 0l4.00009 4.00009 4.00009-4.00009a130.10752 130.10752 0 0 1 183.99982 0l.00018.00018a130.10752 130.10752 0 0 1 0 183.99982z" fill="#e04446"/><circle cx="120" cy="184" fill="#68737f" r="56"/><path d="m120 248a64 64 0 1 1 64-64 64.07239 64.07239 0 0 1 -64 64zm0-112a48 48 0 1 0 48 48 48.05405 48.05405 0 0 0 -48-48z" fill="#4f5761"/><path d="m120 168h32a0 0 0 0 1 0 0v32a0 0 0 0 1 0 0h-32a16 16 0 0 1 -16-16 16 16 0 0 1 16-16z" fill="#d4e4f0"/><path d="m488 183.14014a117.97106 117.97106 0 0 1 -34.55 83.40966l-10.1499 10.1504a49.87778 49.87778 0 0 1 -27.0601 13.92968 49.84461 49.84461 0 0 0 -40.16993 37.08012l-2.24 8.9502a49.78617 49.78617 0 0 1 -27.7301 33.29l-66.09997 30.0498a160.94447 160.94447 0 0 1 -82.08-79.06006l-45.92-96.93994-16-8v-56h64v48l72 72a138.13017 138.13017 0 0 1 22.21-38.67993 138.138 138.138 0 0 1 32.99-29.31007l-1.55-7.77c-.28-1.38013-.52-2.77-.72009-4.15015q-.10491-.67455-.17993-1.34985c-.06006-.36011-.1-.71-.14-1.07007-.02991-.21-.04993-.41992-.07-.62988-.07007-.63013-.13013-1.26-.19006-1.89014v-.04a83.92844 83.92844 0 0 1 69.82-90.13991l5.83008-.97h28.61a37.84161 37.84161 0 0 1 6.72009.60986l11.83984 2.19019a37.00162 37.00162 0 0 1 25.46007 18.11987 117.9937 117.9937 0 0 1 15.37 58.22022z" fill="#fdc5ca"/><circle cx="224" cy="184" fill="#68737f" r="56"/><path d="m224 248a64 64 0 1 1 64-64 64.07239 64.07239 0 0 1 -64 64zm0-112a48 48 0 1 0 48 48 48.05405 48.05405 0 0 0 -48-48z" fill="#4f5761"/><rect fill="#d4e4f0" height="32" rx="16" width="48" x="216" y="168"/><g fill="#fc979e"><path d="m314.80908 303.49023-5.61816-14.98046a142.35153 142.35153 0 0 0 83.31836-83.31836l14.98144 5.61718a158.343 158.343 0 0 1 -92.68164 92.68164z"/><path d="m455.938 224.99219-15.87647-1.98438 2.38672-19.09472a83.98339 83.98339 0 0 0 -24.105-70.25586l11.31348-11.31446a99.88019 99.88019 0 0 1 28.668 83.55469z"/><path d="m376 152v40l-14.53 4.35986a136.524 136.524 0 0 0 -34.25 15.72022l-1.57-7.84008a80.90132 80.90132 0 0 1 -1.3-9.13013 152.219 152.219 0 0 1 32.52-14.07987l3.13-.92993v-28.10007z"/><path d="m298.97 284.35986-10.62988 11.96-16.34012-16.31986a136.22935 136.22935 0 0 1 6.2-14.08008z"/></g></g></svg>