<svg xmlns="http://www.w3.org/2000/svg" width="38.525" height="36.356" viewBox="0 0 38.525 36.356"><path d="M33.009,271.216h7.355l2.577-.281v-.75l-.422-.375-5.95-.187-.422-.422v-15.32l.281-.937h8.292l.562-.281v-.7l-.328-.422-8.574-.234-.234-2.342.234-3.561.609-2.249.75-1.733,1.406-1.406,1.218-.609h1.593l1.687.8,1.64,2.624,1.124,3.186.843.422.422-.469v-.8l-.984-2.577-1.265-2.249-1.78-1.78-1.5-.562h-2.2l-2.249,1.124-1.968,2.717-.75,3.139-.375,6.325-1.921.234-.281.7.328.7H34.6v16.679l-1.593.187-.609.281v.515Z" transform="translate(-28.41 -234.86)" fill="#fbd8d4" opacity="0.94"/><path d="M11.38-1089.665h0c-.006-.01-.6-.953-1.628-2.3-.6-.79-1.232-1.562-1.871-2.3-.8-.917-1.617-1.774-2.43-2.549-.922-.878-1.461-1.4-1.854-1.783-1.022-.992-1.022-.992-4.109-3.7l-.076-.067-.921-.807A24.231,24.231,0,0,1-3.405-1105a21.194,21.194,0,0,1-1.549-1.894,17.391,17.391,0,0,1-2.114-3.818,13.29,13.29,0,0,1-.89-3.672,10.019,10.019,0,0,1,.23-3.3,13.644,13.644,0,0,1,.459-1.489,11.579,11.579,0,0,1,.634-1.408,10.182,10.182,0,0,1,.828-1.3,9.449,9.449,0,0,1,1.04-1.17,9.455,9.455,0,0,1,1.271-1.015,10.319,10.319,0,0,1,1.519-.833,12.091,12.091,0,0,1,1.787-.628,15.266,15.266,0,0,1,2.072-.4A8.87,8.87,0,0,1,2.957-1126a8.447,8.447,0,0,1,1.866.209,8.911,8.911,0,0,1,1.647.55,10.659,10.659,0,0,1,2.6,1.668,12.625,12.625,0,0,1,.934.891c.238.252.466.513.678.777a8.76,8.76,0,0,1,.554.759h0a7.68,7.68,0,0,1,.548-.738c.212-.257.443-.512.687-.757a11.686,11.686,0,0,1,.962-.867,10.832,10.832,0,0,1,2.753-1.625,10.193,10.193,0,0,1,1.792-.535,10.535,10.535,0,0,1,2.07-.2,11.635,11.635,0,0,1,1.456.094,11.971,11.971,0,0,1,1.229.22,10.825,10.825,0,0,1,1.116.325,9.744,9.744,0,0,1,1.912.914,9.51,9.51,0,0,1,2.687,2.521,10.649,10.649,0,0,1,.855,1.4,11.235,11.235,0,0,1,.583,1.357,10.655,10.655,0,0,1,.35,1.209,7.854,7.854,0,0,1,.158.959c.008.082.017.17.026.263h0a13.849,13.849,0,0,1,.084,2.321,11.369,11.369,0,0,1-.2,1.581,12.562,12.562,0,0,1-.524,1.844,15.257,15.257,0,0,1-.961,2.092,19.913,19.913,0,0,1-1.514,2.328,27.381,27.381,0,0,1-2.185,2.55,38.578,38.578,0,0,1-2.973,2.759c-2.275,1.891-4.08,3.69-5.529,5.136l-.612.609c-.9.928-1.7,1.807-2.389,2.611-.547.644-1.02,1.241-1.4,1.777a11.855,11.855,0,0,0-.663,1.013,3.123,3.123,0,0,0-.167.322ZM2.9-1124.6c-.063,0-.128,0-.192,0a9.545,9.545,0,0,0-6.556,2.628,9.1,9.1,0,0,0-.992,1.132,8.8,8.8,0,0,0-.741,1.189,7.009,7.009,0,0,0-.747,2.284,12.156,12.156,0,0,0,.306,5.442,12.029,12.029,0,0,0,.7,1.746,14.983,14.983,0,0,0,1.121,1.9,20.161,20.161,0,0,0,1.63,2.043,28.4,28.4,0,0,0,2.226,2.187c1.566,1.386,2.566,2.268,3.227,2.851h0c1.245,1.1,1.245,1.1,1.467,1.326.164.168.47.482,1.557,1.519.743.708,1.492,1.47,2.225,2.263.586.635,1.164,1.292,1.717,1.953.94,1.122,1.493,1.879,1.5,1.887a6.167,6.167,0,0,1,.638-.849c.316-.381.72-.842,1.2-1.368.6-.658,1.322-1.422,2.146-2.271l.439-.436c.68-.677,1.451-1.443,2.323-2.267,1.009-.953,1.963-1.8,2.915-2.593,4.057-3.341,8.745-8.515,8.04-14.2-.007-.054-.012-.1-.017-.141a10.555,10.555,0,0,0-.306-1.63,9.581,9.581,0,0,0-1.111-2.589,7.765,7.765,0,0,0-2.467-2.491,9.445,9.445,0,0,0-4.375-1.336c-.275-.02-.55-.03-.816-.03a8.828,8.828,0,0,0-4.172.99,8.861,8.861,0,0,0-2.655,2.177,10.44,10.44,0,0,0-.841,1.163,10.826,10.826,0,0,0-.56,1.014,7.876,7.876,0,0,0-.409.99,11.088,11.088,0,0,0-.52-1.013c-.2-.353-.421-.7-.652-1.038a13.758,13.758,0,0,0-.916-1.19,10.306,10.306,0,0,0-2.629-2.229A7.341,7.341,0,0,0,2.9-1124.6Z" transform="translate(8.003 1126)" fill="#fbdad6"/></svg>