<svg xmlns="http://www.w3.org/2000/svg" width="40.838" height="36.356" viewBox="0 0 40.838 36.356"><g transform="translate(-217.162 -1031.541)"><g transform="translate(217.162 1031.541)"><path d="M-216.563-2138.185l-.609-.609v-.516l.609-.281,1.593-.187v-12.188c-.565-.511-1.1-1.041-1.594-1.58a21.287,21.287,0,0,1-1.549-1.894,17.371,17.371,0,0,1-2.114-3.819,13.249,13.249,0,0,1-.89-3.672,10.012,10.012,0,0,1,.229-3.3,13.7,13.7,0,0,1,.46-1.489,11.516,11.516,0,0,1,.635-1.407,10.034,10.034,0,0,1,.828-1.3,9.5,9.5,0,0,1,1.039-1.17,9.451,9.451,0,0,1,1.271-1.015,10.346,10.346,0,0,1,1.519-.833,12.132,12.132,0,0,1,1.787-.627,15.245,15.245,0,0,1,2.072-.4,8.873,8.873,0,0,1,1.075-.066,8.449,8.449,0,0,1,1.867.209,8.9,8.9,0,0,1,1.647.55,10.643,10.643,0,0,1,2.6,1.669,12.44,12.44,0,0,1,.934.891c.238.251.466.513.678.777a8.855,8.855,0,0,1,.553.759h0a7.5,7.5,0,0,1,.548-.737c.212-.258.444-.512.687-.758a11.5,11.5,0,0,1,.962-.867,10.818,10.818,0,0,1,2.753-1.625,10.222,10.222,0,0,1,1.792-.535,10.564,10.564,0,0,1,2.069-.2,11.646,11.646,0,0,1,1.457.094,11.761,11.761,0,0,1,1.229.221,10.746,10.746,0,0,1,1.116.325,9.741,9.741,0,0,1,1.912.915,9.5,9.5,0,0,1,2.687,2.521,10.594,10.594,0,0,1,.855,1.4,11.182,11.182,0,0,1,.582,1.356,10.747,10.747,0,0,1,.351,1.209,7.955,7.955,0,0,1,.158.959c.007.082.016.17.026.264a13.918,13.918,0,0,1,.084,2.321,11.415,11.415,0,0,1-.2,1.581,12.573,12.573,0,0,1-.524,1.843,15.209,15.209,0,0,1-.961,2.093,19.728,19.728,0,0,1-1.514,2.328,27.4,27.4,0,0,1-2.185,2.551,38.516,38.516,0,0,1-2.973,2.76c-2.275,1.891-4.08,3.69-5.53,5.135-.2.2-.412.412-.611.609-.9.928-1.7,1.806-2.389,2.611-.547.644-1.02,1.241-1.4,1.777a11.888,11.888,0,0,0-.663,1.013,3.14,3.14,0,0,0-.166.322c-.006-.01-.6-.954-1.629-2.3-.6-.789-1.231-1.562-1.871-2.295-.8-.916-1.617-1.773-2.43-2.548-.923-.878-1.462-1.4-1.855-1.784-.994-.965-1.021-.992-3.86-3.477v10.407l.421.422,5.95.187.422.375v.749l-2.577.281Zm6.287-11.557v0c1.246,1.1,1.246,1.1,1.467,1.326.165.168.47.482,1.558,1.518.743.708,1.491,1.47,2.225,2.263.586.635,1.164,1.292,1.717,1.952.94,1.122,1.492,1.88,1.5,1.887a6.2,6.2,0,0,1,.639-.849c.316-.381.72-.842,1.2-1.368.6-.658,1.322-1.422,2.146-2.271l.438-.436c.68-.677,1.452-1.444,2.324-2.267,1.009-.953,1.963-1.8,2.915-2.593,4.056-3.341,8.744-8.515,8.04-14.2-.007-.054-.013-.1-.017-.141a10.538,10.538,0,0,0-.306-1.63,9.584,9.584,0,0,0-1.111-2.589,7.772,7.772,0,0,0-2.468-2.491,9.44,9.44,0,0,0-4.375-1.336c-.275-.02-.55-.031-.817-.031a8.829,8.829,0,0,0-4.172.99,8.85,8.85,0,0,0-2.655,2.177,10.489,10.489,0,0,0-.841,1.163,10.74,10.74,0,0,0-.56,1.014,7.948,7.948,0,0,0-.409.99,11.186,11.186,0,0,0-.52-1.013c-.2-.353-.42-.7-.652-1.038a13.712,13.712,0,0,0-.916-1.191,10.31,10.31,0,0,0-2.628-2.229,7.346,7.346,0,0,0-3.7-1.012c-.063,0-.127,0-.191,0a9.545,9.545,0,0,0-6.557,2.628,9.137,9.137,0,0,0-.992,1.132,8.769,8.769,0,0,0-.741,1.189,6.99,6.99,0,0,0-.747,2.283,12.149,12.149,0,0,0,.305,5.442,12,12,0,0,0,.7,1.745,14.9,14.9,0,0,0,1.12,1.9,20.162,20.162,0,0,0,1.631,2.042q.361.4.759.8v-2.478h-1.874l-.328-.7.282-.7,1.921-.235.374-6.324.75-3.139,1.968-2.717,2.248-1.124h2.2l1.5.562,1.78,1.78,1.264,2.249.984,2.577v.8l-.421.468-.843-.421-1.124-3.186-1.64-2.624-1.687-.8h-1.593l-1.219.609-1.4,1.406-.75,1.733-.609,2.248-.234,3.562.234,2.342,8.573.235.329.421v.7l-.562.281h-8.293l-.281.937v3C-211.9-2151.177-210.926-2150.315-210.276-2149.742Z" transform="translate(221.162 2174.541)" fill="#202020" opacity="0.94"/></g><line y2="1" transform="translate(257.5 1035.5)" fill="none" stroke="#fff" stroke-width="1"/></g></svg>