<svg xmlns="http://www.w3.org/2000/svg" xmlns:xlink="http://www.w3.org/1999/xlink" width="719.671" height="697.33" viewBox="0 0 719.671 697.33"><defs><pattern id="a" preserveAspectRatio="xMidYMid slice" width="100%" height="100%" viewBox="0 0 640 640"><image width="640" height="640" xlink:href="../../../Dragan/Programming/Projects/formadicuore/img/2.JPG"/></pattern><filter id="b" x="0" y="0" width="719.671" height="697.33" filterUnits="userSpaceOnUse"><feOffset dx="22" dy="-22" input="SourceAlpha"/><feGaussianBlur stdDeviation="22" result="c"/><feFlood flood-opacity="0.161"/><feComposite operator="in" in2="c"/><feComposite in="SourceGraphic"/></filter></defs><g transform="matrix(0.875, -0.485, 0.485, 0.875, -297.149, 224.037)"><g transform="matrix(0.87, 0.48, -0.48, 0.87, 368.51, -51.89)" filter="url(#b)"><path d="M38.151,214.153c-50.868-48.991-50.868-128.42,0-177.411s133.341-48.99,184.21,0l4,3.857,4-3.857c50.868-48.99,133.341-48.99,184.21,0s50.868,128.42,0,177.411L226.365,395.419Z" transform="translate(44 307.49) rotate(-29)" fill="url(#a)"/></g><g transform="translate(257.78 228.38)"><path d="M3394.581,1449s-37.03-70.747-105.434-67.515c-31.192,1.474-56.924,11.263-76.784,26.809-23.156,18.125-37.85,44.361-42.721,73.845-8.954,54.2,13.937,109.675,78.3,166.9s38.107,33.125,77.964,71.1,69.481,80.725,69.481,80.725,11.109-18.919,55.275-64.432c17.257-17.1,38.983-39.331,68.135-63.556,106.78-88.737,103.279-148.253,101.663-180.57s-25.584-103.952-110.146-109.069S3394.581,1449,3394.581,1449Z" transform="translate(-3167.78 -1381.38)" fill="none" stroke="#fbd8d4" stroke-width="28" opacity="0.67"/></g></g></svg>